<?xml version="1.0" standalone="no"?><!DOCTYPE svg PUBLIC "-//W3C//DTD SVG 1.1//EN" "http://www.w3.org/Graphics/SVG/1.1/DTD/svg11.dtd"><svg t="1557804829460" class="icon" style="" viewBox="0 0 1024 1024" version="1.1" xmlns="http://www.w3.org/2000/svg" p-id="4973" xmlns:xlink="http://www.w3.org/1999/xlink" width="200" height="200"><defs><style type="text/css"></style></defs><path d="M512 51.2C319.232 51.2 154.368 169.6256 85.6064 337.6128l113.4592 0C260.3008 227.8912 377.3952 153.6 512 153.6c197.9392 0 358.4 160.4608 358.4 358.4 0 197.9904-160.4608 358.4-358.4 358.4-119.6032 0-225.1776-58.7776-290.304-148.7872L101.9392 721.6128C178.2784 870.6048 333.056 972.8 512 972.8c254.5152 0 460.8-206.2848 460.8-460.8C972.8 257.536 766.5152 51.2 512 51.2z" p-id="4974" fill="#e6e6e6"></path><path d="M266.0352 339.2 133.0688 483.2256 0 339.2Z" p-id="4975" fill="#e6e6e6"></path><path d="M455.9872 339.2l102.4 0 0 214.4256-102.4 0 0-214.4256Z" p-id="4976" fill="#e6e6e6"></path><path d="M455.959178 552.403451l72.40704-72.40704 217.184916 217.184916-72.40704 72.40704-217.184916-217.184916Z" p-id="4977" fill="#e6e6e6"></path></svg>