<?xml version="1.0" standalone="no"?><!DOCTYPE svg PUBLIC "-//W3C//DTD SVG 1.1//EN" "http://www.w3.org/Graphics/SVG/1.1/DTD/svg11.dtd"><svg t="1557804455630" class="icon" style="" viewBox="0 0 1024 1024" version="1.1" xmlns="http://www.w3.org/2000/svg" p-id="1527" xmlns:xlink="http://www.w3.org/1999/xlink" width="200" height="200"><defs><style type="text/css"></style></defs><path d="M512.036571 438.857017q135.460533 0 253.147356-24.575993t185.709661-72.557694l0 97.133687q0 39.423989-58.879983 73.142836t-160.036526 53.39427-220.013651 19.748566-220.013651-19.748566-160.036526-53.39427-58.879983-73.142836l0-97.133687q68.022838 47.981701 185.709661 72.557694t253.147356 24.575993zM512.036571 877.714035q135.460533 0 253.147356-24.575993t185.709661-72.557694l0 97.133687q0 39.423989-58.879983 73.142836t-160.036526 53.39427-220.013651 19.748566-220.013651-19.748566-160.036526-53.39427-58.879983-73.142836l0-97.133687q68.022838 47.981701 185.709661 72.557694t253.147356 24.575993zM512.036571 658.285526q135.460533 0 253.147356-24.575993t185.709661-72.557694l0 97.133687q0 39.423989-58.879983 73.142836t-160.036526 53.39427-220.013651 19.748566-220.013651-19.748566-160.036526-53.39427-58.879983-73.142836l0-97.133687q68.022838 47.981701 185.709661 72.557694t253.147356 24.575993zM512.036571 0q118.857109 0 220.013651 19.748566t160.036526 53.39427 58.879983 73.142836l0 73.142836q0 39.423989-58.879983 73.142836t-160.036526 53.39427-220.013651 19.748566-220.013651-19.748566-160.036526-53.39427-58.879983-73.142836l0-73.142836q0-39.423989 58.879983-73.142836t160.036526-53.39427 220.013651-19.748566z" p-id="1528" fill="#515151"></path></svg>