<?xml version="1.0" standalone="no"?><!DOCTYPE svg PUBLIC "-//W3C//DTD SVG 1.1//EN" "http://www.w3.org/Graphics/SVG/1.1/DTD/svg11.dtd"><svg t="1557804752887" class="icon" style="" viewBox="0 0 1024 1024" version="1.1" xmlns="http://www.w3.org/2000/svg" p-id="4191" xmlns:xlink="http://www.w3.org/1999/xlink" width="200" height="200"><defs><style type="text/css"></style></defs><path d="M912.192 592.256l-59.552 62.272c-5.536 5.76-24.096 5.12-24.096 5.12s-49.28-5.76-56.416-13.152c-7.072-7.392-11.968-60.928-11.968-60.928s-1.344-14.944 5.76-22.336l59.744-62.112s6.784-7.904-3.008-7.936c-31.616-0.128-95.84 0.608-126.976 32.992l-6.432 6.624c-36.736 38.464-38.944 96.224-9.44 137.76l-181.984 171.232c-14.464 15.04-33.504 56 0 90.816s72.864 15.04 87.296 0c0 0 119.072-135.488 129.248-147.328 10.208-11.84 4.864-24.256 4.864-24.256s-20.928-30.464-32.256-48.64c-6.112-9.952-3.232-11.2 5.504-5.408 24.064 16 52.128 34.336 56.992 36.768l0.256-0.32c39.808 31.008 95.36 28.8 132.288-9.696l6.4-6.656c30.144-31.36 31.072-97.6 31.2-131.04 0.064-10.656-7.424-3.776-7.424-3.776zM546.272 929.696c-16.928 0-30.592-14.272-30.592-31.84s13.696-31.84 30.592-31.84 30.592 14.272 30.592 31.84-13.696 31.84-30.592 31.84z m-99.776-349.312c51.744 0 100.64-5.76 144.608-15.808 27.84-84.416 101.28-144.96 187.616-144.96 3.136 0 6.112 0.352 9.184 0.512 0.16-2.368 0.736-4.672 0.736-7.008V285.152c0 92.448-153.12 167.296-342.112 167.296S104.416 377.6 104.416 285.152v127.968c0 92.416 153.12 167.264 342.112 167.264z m0-173.824c188.96 0 342.112-74.816 342.112-167.264 0-92.48-153.12-167.328-342.112-167.328S104.384 146.816 104.384 239.296c0 92.416 153.12 167.264 342.112 167.264z m0 347.616c18.976 0 37.504-0.928 55.648-2.4l77.792-85.472 0.512-0.576a245.568 245.568 0 0 1-1.504-26.72c0-8.832 0.64-17.504 1.536-26.112a660.416 660.416 0 0 1-134.016 13.312c-188.992 0-342.112-74.848-342.112-167.296v127.936c0 92.416 153.12 167.264 342.112 167.264z m-342.08-121.376v127.904c0 87.968 138.72 159.808 314.912 166.624-4.352-41.984 2.304-87.04 21.536-108.224l17.6-19.328c-4.032 0.064-7.904 0.288-11.968 0.288-188.96 0-342.08-74.848-342.08-167.264z" p-id="4192" fill="#e6e6e6"></path></svg>