<?xml version="1.0" standalone="no"?><!DOCTYPE svg PUBLIC "-//W3C//DTD SVG 1.1//EN" "http://www.w3.org/Graphics/SVG/1.1/DTD/svg11.dtd"><svg t="1557804890478" class="icon" style="" viewBox="0 0 1024 1024" version="1.1" xmlns="http://www.w3.org/2000/svg" p-id="5799" xmlns:xlink="http://www.w3.org/1999/xlink" width="200" height="200"><defs><style type="text/css"></style></defs><path d="M166.108 628.657c-15.83 0-30.837-3.001-45.027-9.006-14.191-6-26.471-14.186-36.84-24.56-10.37-10.368-18.557-22.647-24.561-36.838-6.004-14.19-9.007-29.196-9.007-45.026 0-15.824 3.003-30.7 9.007-44.613 6.004-13.92 14.19-26.063 24.56-36.432 10.37-10.369 22.65-18.555 36.84-24.56 14.191-6.003 29.198-9.005 45.028-9.005 3.274 0 6.276 0.14 9.006 0.412 2.727 0.271 5.457 0.407 8.187 0.407l159.643-193.2c-2.73-5.457-4.506-11.46-5.326-18.008-0.814-6.552-1.227-13.372-1.227-20.466 0-15.83 3.003-30.835 9.007-45.026 6.004-14.19 14.19-26.47 24.56-36.839s22.65-18.555 36.84-24.559c14.191-6.004 29.202-9.006 45.028-9.006 15.826 0 30.836 3.002 45.027 9.006s26.471 14.19 36.84 24.56c10.37 10.369 18.557 22.648 24.561 36.838 6.004 14.19 9.007 29.2 9.007 45.026 0 13.1-2.047 25.514-6.14 37.246-4.094 11.736-9.69 22.785-16.787 33.158l138.362 309.446 79.409-141.623c-6.004-9.279-10.913-19.512-14.735-30.7-3.822-11.188-5.732-23.06-5.732-35.612 0-15.83 3.002-30.835 9.006-45.025 6.004-14.19 14.19-26.47 24.56-36.84 10.37-10.368 22.65-18.555 36.841-24.559 14.19-6.003 29.201-9.006 45.027-9.006s30.837 3.003 45.028 9.006c14.19 6.004 26.607 14.19 37.248 24.56 10.645 10.369 18.968 22.649 24.972 36.839 6.004 14.19 9.007 29.2 9.007 45.025 0 16.373-3.003 31.654-9.007 45.845-6.004 14.186-14.327 26.606-24.972 37.247-10.641 10.64-23.058 18.967-37.248 24.966-14.195 6.005-29.202 9.006-45.028 9.006h-19.647L759.651 598.37c12.007 10.913 21.561 23.74 28.653 38.473 7.095 14.739 10.641 30.836 10.641 48.3 0 15.829-3.001 30.839-9.006 45.025-6 14.19-14.327 26.606-24.968 37.251-10.64 10.64-22.921 18.963-36.84 24.967-13.92 6.003-29.062 9.006-45.435 9.006s-31.52-3.003-45.44-9.006c-13.915-6.004-26.06-14.327-36.428-24.967-10.374-10.645-18.56-23.06-24.56-37.251-6.006-14.186-9.007-29.196-9.007-45.026 0-17.463 3.41-33.56 10.233-48.299 6.82-14.733 16.238-27.56 28.242-38.473l-140.81-315.178c-5.46 1.09-9.826 1.634-13.1 1.634-8.734 0-17.057-1.091-24.968-3.274-7.915-2.182-15.422-4.912-22.513-8.186L264.349 450.194c5.457 9.278 9.822 19.24 13.1 29.88 3.274 10.64 4.908 21.693 4.908 33.153 0 15.83-3.001 30.84-9 45.025-6.006 14.192-14.328 26.471-24.974 36.84-10.64 10.373-22.92 18.559-36.84 24.559-13.915 6.005-29.061 9.006-45.435 9.006zM50.673 860.337h922.654v111.331H50.673V860.336z m0 0" p-id="5800" fill="#e6e6e6"></path></svg>