<?xml version="1.0" standalone="no"?><!DOCTYPE svg PUBLIC "-//W3C//DTD SVG 1.1//EN" "http://www.w3.org/Graphics/SVG/1.1/DTD/svg11.dtd"><svg t="1558401661149" class="icon" style="" viewBox="0 0 1024 1024" version="1.1" xmlns="http://www.w3.org/2000/svg" p-id="2597" xmlns:xlink="http://www.w3.org/1999/xlink" width="200" height="200"><defs><style type="text/css"></style></defs><path d="M896 198.4c0 6.4 6.4 12.8 6.4 19.2v25.6c0 6.4 0 12.8-6.4 25.6 0 6.4-6.4 12.8-12.8 25.6l-19.2 19.2-12.8 12.8-12.8 12.8-172.8-172.8c6.4-6.4 19.2-12.8 25.6-25.6 12.8-6.4 19.2-19.2 25.6-25.6 6.4-6.4 19.2-12.8 25.6-12.8 6.4 0 19.2-6.4 25.6-6.4 6.4 0 19.2 0 25.6 6.4 6.4 0 12.8 6.4 19.2 6.4 12.8 6.4 25.6 19.2 44.8 38.4 19.2 12.8 25.6 32 38.4 51.2z m-716.8 448l25.6-25.6 51.2-51.2 339.2-339.2 172.8 172.8-198.4 198.4-70.4 76.8-64 64-51.2 51.2c-12.8 12.8-19.2 19.2-25.6 19.2l-19.2 19.2c-6.4 6.4-19.2 12.8-25.6 12.8-6.4 6.4-19.2 6.4-38.4 12.8s-32 12.8-51.2 19.2c-19.2 6.4-32 12.8-51.2 12.8-19.2 6.4-25.6 6.4-38.4 6.4-19.2 0-25.6 0-32-6.4-6.4-6.4-6.4-19.2-6.4-32 0-6.4 6.4-19.2 6.4-38.4 6.4-19.2 6.4-32 12.8-51.2 6.4-19.2 12.8-32 12.8-51.2 6.4-12.8 6.4-25.6 12.8-32 6.4-6.4 6.4-19.2 12.8-25.6 12.8 0 19.2-6.4 25.6-12.8z m345.6 198.4c0-25.6 25.6-51.2 51.2-51.2s51.2 25.6 51.2 51.2-25.6 51.2-51.2 51.2-51.2-25.6-51.2-51.2z m147.2 0c0-25.6 25.6-51.2 51.2-51.2s51.2 25.6 51.2 51.2-25.6 51.2-51.2 51.2-51.2-25.6-51.2-51.2z" p-id="2598"></path></svg>