<?xml version="1.0" standalone="no"?><!DOCTYPE svg PUBLIC "-//W3C//DTD SVG 1.1//EN" "http://www.w3.org/Graphics/SVG/1.1/DTD/svg11.dtd"><svg t="1560909208193" class="icon" style="" viewBox="0 0 1024 1024" version="1.1" xmlns="http://www.w3.org/2000/svg" p-id="3214" xmlns:xlink="http://www.w3.org/1999/xlink" width="200" height="200"><defs><style type="text/css"></style></defs><path d="M940.222 0H83.702A83.703 83.703 0 0 0 0 83.703v856.594C0 986.53 37.47 1024 83.703 1024h856.594A83.703 83.703 0 0 0 1024 940.297V83.74A83.816 83.816 0 0 0 940.222 0zM749.454 64.588a42.743 42.743 0 1 1 0 85.523 42.743 42.743 0 0 1 0-85.523z m-145.9 0a42.743 42.743 0 1 1 0 85.523 42.743 42.743 0 0 1 0-85.523z m334.43 873.396H85.94V214.092h852.044v723.892z m-42.743-787.949a42.743 42.743 0 1 1 0-85.523 42.743 42.743 0 0 1 0 85.523zM224.446 474.681l60.378-60.378 158.265 158.265L284.824 730.87l-60.378-60.379 97.924-97.924-97.849-97.887z m287.478 291.84V681.15h218.34v85.409h-218.34z" p-id="3215" fill="#e6e6e6"></path></svg>